<svg width="107" height="107" viewBox="0 0 107 107" fill="none" xmlns="http://www.w3.org/2000/svg">
<path d="M102 102L92.3 92.3M51.075 97.15C57.1257 97.15 63.1171 95.9582 68.7071 93.6427C74.2972 91.3273 79.3765 87.9334 83.6549 83.6549C87.9334 79.3765 91.3273 74.2972 93.6427 68.7071C95.9582 63.1171 97.15 57.1257 97.15 51.075C97.15 45.0243 95.9582 39.0329 93.6427 33.4429C91.3273 27.8528 87.9334 22.7735 83.6549 18.4951C79.3765 14.2166 74.2972 10.8227 68.7071 8.50725C63.1171 6.19176 57.1257 5 51.075 5C38.8552 5 27.1358 9.85432 18.4951 18.4951C9.85431 27.1358 5 38.8552 5 51.075C5 63.2948 9.85431 75.0142 18.4951 83.6549C27.1358 92.2957 38.8552 97.15 51.075 97.15Z" stroke="white" stroke-width="10" stroke-linecap="round" stroke-linejoin="round"/>
</svg>
